<svg version="1.1" viewBox="0.0 0.0 690.0 308.0" fill="none" stroke="none" stroke-linecap="square" stroke-miterlimit="10" width="690" height="308" xmlns:xlink="http://www.w3.org/1999/xlink" xmlns="http://www.w3.org/2000/svg"><path fill="#ffffff" d="M0 0L690.0 0L690.0 308.0L0 308.0L0 0Z" fill-rule="nonzero"/><path fill="#4285f4" d="M345.0 46.585C353.71494 46.585 362.41046 47.160378 370.97104 48.30349L345.0 143.605Z" fill-rule="nonzero"/><path fill="#34a853" d="M250.12177 72.88046C275.81973 55.98807 309.74753 46.585 345.0 46.585L345.0 143.605Z" fill-rule="nonzero"/><path fill="#fbbc04" d="M223.5439 96.86526C230.55055 87.94371 239.51959 79.84974 250.12177 72.88046L345.0 143.605Z" fill-rule="nonzero"/><path fill="#a42f25" d="M483.6 164.395C483.6 217.97766 421.54666 261.415 345.0 261.415C268.45334 261.415 206.4 217.97766 206.4 164.395L206.4 143.605C206.4 197.18767 268.45334 240.625 345.0 240.625C421.54666 240.625 483.6 197.18767 483.6 143.605Z" fill-rule="nonzero"/><path fill="#ea4335" d="M370.97104 48.30349C429.95264 56.17943 474.98145 89.74499 482.5071 131.44518C490.03275 173.14536 458.3435 213.49513 404.013 231.39133C349.68253 249.2875 285.0687 240.65948 243.96495 210.01976C202.8612 179.38004 194.61691 133.69785 223.5439 96.86526L345.0 143.605Z" fill-rule="nonzero"/><path fill="#1a1a1a" d="M22.4625 49.495575L23.5875 49.79245Q23.228125 51.183075 22.30625 51.91745Q21.384375 52.651825 20.040625 52.651825Q18.65 52.651825 17.775 52.089325Q16.9 51.526825 16.446875 50.464325Q15.99375 49.3862 15.99375 48.151825Q15.99375 46.808075 16.509375 45.808075Q17.025 44.808075 17.9625 44.29245Q18.915625 43.776825 20.05625 43.776825Q21.3375 43.776825 22.2125 44.433075Q23.103125 45.089325 23.446875 46.276825L22.321875 46.54245Q22.025 45.60495 21.446875 45.183075Q20.884375 44.745575 20.025 44.745575Q19.040625 44.745575 18.36875 45.22995Q17.7125 45.6987 17.43125 46.495575Q17.165625 47.29245 17.165625 48.151825Q17.165625 49.245575 17.478125 50.058075Q17.80625 50.870575 18.478125 51.276825Q19.15 51.683075 19.946875 51.683075Q20.9 51.683075 21.55625 51.1362Q22.228125 50.589325 22.4625 49.495575ZM24.80625 49.401825Q24.80625 47.66745 25.759375 46.839325Q26.55625 46.151825 27.7125 46.151825Q28.99375 46.151825 29.80625 46.995575Q30.634375 47.8237 30.634375 49.308075Q30.634375 50.5112 30.275 51.1987Q29.915625 51.8862 29.2125 52.276825Q28.525 52.651825 27.7125 52.651825Q26.415625 52.651825 25.603125 51.8237Q24.80625 50.97995 24.80625 49.401825ZM25.884375 49.401825Q25.884375 50.589325 26.4 51.183075Q26.93125 51.776825 27.7125 51.776825Q28.509375 51.776825 29.025 51.183075Q29.540625 50.589325 29.540625 49.370575Q29.540625 48.214325 29.009375 47.620575Q28.49375 47.026825 27.7125 47.026825Q26.93125 47.026825 26.4 47.620575Q25.884375 48.1987 25.884375 49.401825ZM32.196877 52.5112L32.196877 46.29245L33.134377 46.29245L33.134377 47.16745Q33.43125 46.6987 33.915627 46.433075Q34.4 46.151825 35.025 46.151825Q35.7125 46.151825 36.15 46.433075Q36.603127 46.714325 36.775 47.22995Q37.525 46.151825 38.696877 46.151825Q39.634377 46.151825 40.11875 46.66745Q40.61875 47.16745 40.61875 48.245575L40.61875 52.5112L39.571877 52.5112L39.571877 48.589325Q39.571877 47.964325 39.4625 47.683075Q39.36875 47.401825 39.103127 47.22995Q38.8375 47.058075 38.4625 47.058075Q37.80625 47.058075 37.36875 47.495575Q36.946877 47.933075 36.946877 48.901825L36.946877 52.5112L35.884377 52.5112L35.884377 48.464325Q35.884377 47.7612 35.61875 47.41745Q35.36875 47.058075 34.790627 47.058075Q34.3375 47.058075 33.9625 47.29245Q33.5875 47.526825 33.415627 47.97995Q33.24375 48.433075 33.24375 49.276825L33.24375 52.5112L32.196877 52.5112ZM43.196877 52.5112L43.196877 46.29245L44.134377 46.29245L44.134377 47.16745Q44.43125 46.6987 44.915627 46.433075Q45.4 46.151825 46.025 46.151825Q46.7125 46.151825 47.15 46.433075Q47.603127 46.714325 47.775 47.22995Q48.525 46.151825 49.696877 46.151825Q50.634377 46.151825 51.11875 46.66745Q51.61875 47.16745 51.61875 48.245575L51.61875 52.5112L50.571877 52.5112L50.571877 48.589325Q50.571877 47.964325 50.4625 47.683075Q50.36875 47.401825 50.103127 47.22995Q49.8375 47.058075 49.4625 47.058075Q48.80625 47.058075 48.36875 47.495575Q47.946877 47.933075 47.946877 48.901825L47.946877 52.5112L46.884377 52.5112L46.884377 48.464325Q46.884377 47.7612 46.61875 47.41745Q46.36875 47.058075 45.790627 47.058075Q45.3375 47.058075 44.9625 47.29245Q44.5875 47.526825 44.415627 47.97995Q44.24375 48.433075 44.24375 49.276825L44.24375 52.5112L43.196877 52.5112ZM58.275 52.5112L58.275 51.589325Q57.540627 52.651825 56.290627 52.651825Q55.74375 52.651825 55.259377 52.4487Q54.790627 52.22995 54.55625 51.91745Q54.321877 51.589325 54.228127 51.120575Q54.165627 50.8237 54.165627 50.1362L54.165627 46.29245L55.228127 46.29245L55.228127 49.745575Q55.228127 50.558075 55.290627 50.85495Q55.384377 51.2612 55.696877 51.5112Q56.025 51.745575 56.509377 51.745575Q56.978127 51.745575 57.384377 51.5112Q57.80625 51.2612 57.978127 50.839325Q58.165627 50.41745 58.165627 49.620575L58.165627 46.29245L59.2125 46.29245L59.2125 52.5112L58.275 52.5112ZM61.196877 52.5112L61.196877 46.29245L62.134377 46.29245L62.134377 47.16745Q62.821877 46.151825 64.11875 46.151825Q64.68125 46.151825 65.15 46.35495Q65.63438 46.558075 65.86875 46.8862Q66.10313 47.214325 66.19688 47.651825Q66.24375 47.9487 66.24375 48.683075L66.24375 52.5112L65.19688 52.5112L65.19688 48.72995Q65.19688 48.0737 65.07188 47.7612Q64.94688 47.4487 64.63438 47.2612Q64.32188 47.058075 63.9 47.058075Q63.228127 47.058075 62.728127 47.495575Q62.24375 47.91745 62.24375 49.10495L62.24375 52.5112L61.196877 52.5112ZM68.19688 45.1362L68.19688 43.91745L69.25938 43.91745L69.25938 45.1362L68.19688 45.1362ZM68.19688 52.5112L68.19688 46.29245L69.25938 46.29245L69.25938 52.5112L68.19688 52.5112ZM73.49375 51.5737L73.65 52.495575Q73.19688 52.589325 72.85313 52.589325Q72.275 52.589325 71.9625 52.41745Q71.65 52.22995 71.50938 51.933075Q71.38438 51.6362 71.38438 50.683075L71.38438 47.10495L70.61875 47.10495L70.61875 46.29245L71.38438 46.29245L71.38438 44.745575L72.43125 44.120575L72.43125 46.29245L73.49375 46.29245L73.49375 47.10495L72.43125 47.10495L72.43125 50.745575Q72.43125 51.1987 72.47813 51.3237Q72.54063 51.4487 72.66563 51.526825Q72.79063 51.60495 73.025 51.60495Q73.2125 51.60495 73.49375 51.5737ZM74.15 54.901825L74.025 53.91745Q74.36875 54.0112 74.63438 54.0112Q74.97813 54.0112 75.18125 53.8862Q75.4 53.776825 75.54063 53.5737Q75.63438 53.401825 75.86875 52.776825Q75.88438 52.6987 75.9625 52.526825L73.5875 46.29245L74.72813 46.29245L76.025 49.8862Q76.275 50.5737 76.47813 51.339325Q76.66563 50.60495 76.91563 49.91745L78.24375 46.29245L79.29063 46.29245L76.93125 52.620575Q76.54063 53.6362 76.3375 54.026825Q76.05625 54.558075 75.68125 54.79245Q75.32188 55.04245 74.82188 55.04245Q74.525 55.04245 74.15 54.901825Z" fill-rule="nonzero"/><path fill="#9e9e9e" d="M19.86875 69.5112L18.821875 69.5112L18.821875 62.79245Q18.43125 63.151825 17.80625 63.526825Q17.196875 63.8862 16.7125 64.058075L16.7125 63.04245Q17.5875 62.620575 18.24375 62.04245Q18.915625 61.4487 19.196875 60.8862L19.86875 60.8862L19.86875 69.5112ZM28.446875 68.495575L28.446875 69.5112L22.759375 69.5112Q22.759375 69.1362 22.884375 68.776825Q23.103125 68.1987 23.571875 67.6362Q24.05625 67.0737 24.9625 66.339325Q26.36875 65.183075 26.853125 64.5112Q27.353125 63.839325 27.353125 63.245575Q27.353125 62.620575 26.9 62.1987Q26.446875 61.7612 25.728125 61.7612Q24.9625 61.7612 24.509375 62.214325Q24.05625 62.66745 24.040625 63.47995L22.9625 63.370575Q23.071875 62.151825 23.790625 61.526825Q24.525 60.8862 25.759375 60.8862Q26.99375 60.8862 27.7125 61.5737Q28.43125 62.2612 28.43125 63.276825Q28.43125 63.79245 28.2125 64.29245Q28.009375 64.776825 27.509375 65.339325Q27.025 65.8862 25.9 66.839325Q24.946875 67.6362 24.665625 67.933075Q24.4 68.214325 24.228125 68.495575L28.446875 68.495575ZM30.49375 69.5112L30.49375 68.308075L31.696875 68.308075L31.696875 69.5112L30.49375 69.5112ZM32.9 65.276825Q32.9 63.745575 33.2125 62.8237Q33.525 61.8862 34.134377 61.3862Q34.759377 60.8862 35.696877 60.8862Q36.384377 60.8862 36.9 61.16745Q37.43125 61.4487 37.775 61.97995Q38.11875 62.495575 38.30625 63.245575Q38.49375 63.995575 38.49375 65.276825Q38.49375 66.79245 38.18125 67.714325Q37.884377 68.6362 37.259377 69.151825Q36.65 69.651825 35.696877 69.651825Q34.4625 69.651825 33.74375 68.7612Q32.9 67.6987 32.9 65.276825ZM33.978127 65.276825Q33.978127 67.3862 34.478127 68.089325Q34.978127 68.79245 35.696877 68.79245Q36.43125 68.79245 36.915627 68.089325Q37.415627 67.3862 37.415627 65.276825Q37.415627 63.151825 36.915627 62.464325Q36.43125 61.7612 35.68125 61.7612Q34.9625 61.7612 34.525 62.370575Q33.978127 63.151825 33.978127 65.276825ZM40.103127 62.97995Q40.103127 62.058075 40.55625 61.41745Q41.025 60.776825 41.9 60.776825Q42.7125 60.776825 43.24375 61.35495Q43.775 61.933075 43.775 63.04245Q43.775 64.1362 43.228127 64.72995Q42.696877 65.308075 41.915627 65.308075Q41.134377 65.308075 40.61875 64.72995Q40.103127 64.151825 40.103127 62.97995ZM41.93125 61.495575Q41.540627 61.495575 41.275 61.839325Q41.025 62.183075 41.025 63.089325Q41.025 63.91745 41.275 64.2612Q41.540627 64.589325 41.93125 64.589325Q42.3375 64.589325 42.5875 64.245575Q42.853127 63.901825 42.853127 63.0112Q42.853127 62.16745 42.5875 61.839325Q42.321877 61.495575 41.93125 61.495575ZM41.93125 69.8237L46.634377 60.776825L47.49375 60.776825L42.80625 69.8237L41.93125 69.8237ZM45.65 67.495575Q45.65 66.5737 46.103127 65.933075Q46.571877 65.29245 47.4625 65.29245Q48.275 65.29245 48.80625 65.870575Q49.3375 66.433075 49.3375 67.558075Q49.3375 68.651825 48.790627 69.245575Q48.259377 69.8237 47.4625 69.8237Q46.696877 69.8237 46.165627 69.245575Q45.65 68.66745 45.65 67.495575ZM47.49375 66.0112Q47.0875 66.0112 46.821877 66.35495Q46.571877 66.6987 46.571877 67.60495Q46.571877 68.41745 46.8375 68.7612Q47.103127 69.10495 47.49375 69.10495Q47.884377 69.10495 48.15 68.7612Q48.415627 68.41745 48.415627 67.5112Q48.415627 66.683075 48.15 66.35495Q47.884377 66.0112 47.49375 66.0112Z" fill-rule="nonzero"/><path stroke="#757575" stroke-width="1.0" stroke-linecap="butt" d="M15.4 57.0112L200.4 57.0112L296.52905 57.908432" fill-rule="nonzero"/><path fill="#9e9e9e" d="M298.52905 57.908432C298.52905 56.80386 297.6336 55.908432 296.52905 55.908432C295.42447 55.908432 294.52905 56.80386 294.52905 57.908432C294.52905 59.013 295.42447 59.908432 296.52905 59.908432C297.6336 59.908432 298.52905 59.013 298.52905 57.908432" fill-rule="nonzero"/><path fill="#1a1a1a" d="M16.290625 83.5112L16.290625 74.91745L18.009375 74.91745L20.040625 80.995575Q20.321875 81.85495 20.446875 82.276825Q20.5875 81.808075 20.9 80.901825L22.9625 74.91745L24.49375 74.91745L24.49375 83.5112L23.4 83.5112L23.4 76.3237L20.9 83.5112L19.86875 83.5112L17.384375 76.1987L17.384375 83.5112L16.290625 83.5112ZM25.196875 76.1362L25.196875 74.91745L26.259375 74.91745L26.259375 76.1362L25.196875 76.1362ZM25.196875 83.5112L25.196875 77.29245L26.259375 77.29245L26.259375 83.5112L25.196875 83.5112ZM28.196875 83.5112L28.196875 77.29245L29.134375 77.29245L29.134375 78.16745Q29.821875 77.151825 31.11875 77.151825Q31.68125 77.151825 32.15 77.35495Q32.634377 77.558075 32.86875 77.8862Q33.103127 78.214325 33.196877 78.651825Q33.24375 78.9487 33.24375 79.683075L33.24375 83.5112L32.196877 83.5112L32.196877 79.72995Q32.196877 79.0737 32.071877 78.7612Q31.946875 78.4487 31.634375 78.2612Q31.321875 78.058075 30.9 78.058075Q30.228125 78.058075 29.728125 78.495575Q29.24375 78.91745 29.24375 80.10495L29.24375 83.5112L28.196875 83.5112ZM37.49375 82.5737L37.65 83.495575Q37.196877 83.589325 36.853127 83.589325Q36.275 83.589325 35.9625 83.41745Q35.65 83.22995 35.509377 82.933075Q35.384377 82.6362 35.384377 81.683075L35.384377 78.10495L34.61875 78.10495L34.61875 77.29245L35.384377 77.29245L35.384377 75.745575L36.43125 75.120575L36.43125 77.29245L37.49375 77.29245L37.49375 78.10495L36.43125 78.10495L36.43125 81.745575Q36.43125 82.1987 36.478127 82.3237Q36.540627 82.4487 36.665627 82.526825Q36.790627 82.60495 37.025 82.60495Q37.2125 82.60495 37.49375 82.5737ZM42.446877 81.5112L43.540627 81.6362Q43.290627 82.589325 42.5875 83.120575Q41.884377 83.651825 40.80625 83.651825Q39.446877 83.651825 38.634377 82.808075Q37.8375 81.964325 37.8375 80.4487Q37.8375 78.8862 38.65 78.026825Q39.4625 77.151825 40.74375 77.151825Q41.99375 77.151825 42.775 77.995575Q43.571877 78.839325 43.571877 80.3862Q43.571877 80.47995 43.571877 80.66745L38.93125 80.66745Q38.99375 81.6987 39.509377 82.245575Q40.025 82.776825 40.80625 82.776825Q41.384377 82.776825 41.790627 82.47995Q42.2125 82.16745 42.446877 81.5112ZM38.99375 79.808075L42.4625 79.808075Q42.4 79.0112 42.071877 78.620575Q41.55625 78.0112 40.759377 78.0112Q40.025 78.0112 39.525 78.495575Q39.040627 78.97995 38.99375 79.808075ZM45.18125 83.5112L45.18125 77.29245L46.134377 77.29245L46.134377 78.22995Q46.49375 77.5737 46.790627 77.370575Q47.103127 77.151825 47.478127 77.151825Q48.009377 77.151825 48.55625 77.47995L48.196877 78.464325Q47.80625 78.22995 47.43125 78.22995Q47.071877 78.22995 46.790627 78.4487Q46.525 78.651825 46.415627 79.026825Q46.228127 79.589325 46.228127 80.245575L46.228127 83.5112L45.18125 83.5112Z" fill-rule="nonzero"/><path fill="#9e9e9e" d="M15.9 98.2612L17.009375 98.16745Q17.134375 98.97995 17.571875 99.3862Q18.025 99.79245 18.665625 99.79245Q19.415625 99.79245 19.946875 99.214325Q20.478125 98.6362 20.478125 97.6987Q20.478125 96.79245 19.9625 96.276825Q19.4625 95.745575 18.634375 95.745575Q18.134375 95.745575 17.7125 95.97995Q17.30625 96.214325 17.071875 96.5737L16.0875 96.4487L16.915625 92.04245L21.196875 92.04245L21.196875 93.04245L17.759375 93.04245L17.30625 95.35495Q18.071875 94.808075 18.915625 94.808075Q20.040625 94.808075 20.80625 95.589325Q21.5875 96.370575 21.5875 97.60495Q21.5875 98.7612 20.915625 99.620575Q20.0875 100.651825 18.665625 100.651825Q17.49375 100.651825 16.74375 99.995575Q16.009375 99.339325 15.9 98.2612ZM23.49375 100.5112L23.49375 99.308075L24.696875 99.308075L24.696875 100.5112L23.49375 100.5112ZM25.9 96.276825Q25.9 94.745575 26.2125 93.8237Q26.525 92.8862 27.134375 92.3862Q27.759375 91.8862 28.696875 91.8862Q29.384375 91.8862 29.9 92.16745Q30.43125 92.4487 30.775 92.97995Q31.11875 93.495575 31.30625 94.245575Q31.49375 94.995575 31.49375 96.276825Q31.49375 97.79245 31.18125 98.714325Q30.884375 99.6362 30.259375 100.151825Q29.65 100.651825 28.696875 100.651825Q27.4625 100.651825 26.74375 99.7612Q25.9 98.6987 25.9 96.276825ZM26.978125 96.276825Q26.978125 98.3862 27.478125 99.089325Q27.978125 99.79245 28.696875 99.79245Q29.43125 99.79245 29.915625 99.089325Q30.415625 98.3862 30.415625 96.276825Q30.415625 94.151825 29.915625 93.464325Q29.43125 92.7612 28.68125 92.7612Q27.9625 92.7612 27.525 93.370575Q26.978125 94.151825 26.978125 96.276825ZM33.103127 93.97995Q33.103127 93.058075 33.55625 92.41745Q34.025 91.776825 34.9 91.776825Q35.7125 91.776825 36.24375 92.35495Q36.775 92.933075 36.775 94.04245Q36.775 95.1362 36.228127 95.72995Q35.696877 96.308075 34.915627 96.308075Q34.134377 96.308075 33.61875 95.72995Q33.103127 95.151825 33.103127 93.97995ZM34.93125 92.495575Q34.540627 92.495575 34.275 92.839325Q34.025 93.183075 34.025 94.089325Q34.025 94.91745 34.275 95.2612Q34.540627 95.589325 34.93125 95.589325Q35.3375 95.589325 35.5875 95.245575Q35.853127 94.901825 35.853127 94.0112Q35.853127 93.16745 35.5875 92.839325Q35.321877 92.495575 34.93125 92.495575ZM34.93125 100.8237L39.634377 91.776825L40.49375 91.776825L35.80625 100.8237L34.93125 100.8237ZM38.65 98.495575Q38.65 97.5737 39.103127 96.933075Q39.571877 96.29245 40.4625 96.29245Q41.275 96.29245 41.80625 96.870575Q42.3375 97.433075 42.3375 98.558075Q42.3375 99.651825 41.790627 100.245575Q41.259377 100.8237 40.4625 100.8237Q39.696877 100.8237 39.165627 100.245575Q38.65 99.66745 38.65 98.495575ZM40.49375 97.0112Q40.0875 97.0112 39.821877 97.35495Q39.571877 97.6987 39.571877 98.60495Q39.571877 99.41745 39.8375 99.7612Q40.103127 100.10495 40.49375 100.10495Q40.884377 100.10495 41.15 99.7612Q41.415627 99.41745 41.415627 98.5112Q41.415627 97.683075 41.15 97.35495Q40.884377 97.0112 40.49375 97.0112Z" fill-rule="nonzero"/><path stroke="#757575" stroke-width="1.0" stroke-linecap="butt" d="M15.4 88.0112L200.4 88.0112L240.9603 87.11397" fill-rule="nonzero"/><path fill="#9e9e9e" d="M242.9603 87.11397C242.9603 86.0094 242.06487 85.11397 240.9603 85.11397C239.85571 85.11397 238.9603 86.0094 238.9603 87.11397C238.9603 88.21854 239.85571 89.11397 240.9603 89.11397C242.06487 89.11397 242.9603 88.21854 242.9603 87.11397" fill-rule="nonzero"/><path fill="#1a1a1a" d="M640.6625 44.329426L641.7875 44.6263Q641.4281 46.016926 640.5062 46.7513Q639.58435 47.485676 638.2406 47.485676Q636.85 47.485676 635.975 46.923176Q635.1 46.360676 634.64685 45.298176Q634.1937 44.22005 634.1937 42.985676Q634.1937 41.641926 634.70935 40.641926Q635.225 39.641926 636.1625 39.1263Q637.1156 38.610676 638.2562 38.610676Q639.5375 38.610676 640.4125 39.266926Q641.3031 39.923176 641.64685 41.110676L640.52185 41.3763Q640.225 40.4388 639.64685 40.016926Q639.08435 39.579426 638.225 39.579426Q637.2406 39.579426 636.5687 40.0638Q635.9125 40.53255 635.6312 41.329426Q635.3656 42.1263 635.3656 42.985676Q635.3656 44.079426 635.6781 44.891926Q636.0062 45.704426 636.6781 46.110676Q637.35 46.516926 638.14685 46.516926Q639.1 46.516926 639.7562 45.97005Q640.4281 45.423176 640.6625 44.329426ZM643.3812 47.34505L643.3812 41.1263L644.33435 41.1263L644.33435 42.0638Q644.6937 41.40755 644.9906 41.204426Q645.3031 40.985676 645.6781 40.985676Q646.20935 40.985676 646.7562 41.3138L646.39685 42.298176Q646.0062 42.0638 645.6312 42.0638Q645.27185 42.0638 644.9906 42.28255Q644.725 42.485676 644.6156 42.860676Q644.4281 43.423176 644.4281 44.079426L644.4281 47.34505L643.3812 47.34505ZM651.64685 45.34505L652.7406 45.47005Q652.4906 46.423176 651.7875 46.954426Q651.08435 47.485676 650.0062 47.485676Q648.64685 47.485676 647.83435 46.641926Q647.0375 45.798176 647.0375 44.28255Q647.0375 42.72005 647.85 41.860676Q648.6625 40.985676 649.9437 40.985676Q651.1937 40.985676 651.975 41.829426Q652.77185 42.673176 652.77185 44.22005Q652.77185 44.3138 652.77185 44.5013L648.1312 44.5013Q648.1937 45.53255 648.70935 46.079426Q649.225 46.610676 650.0062 46.610676Q650.58435 46.610676 650.9906 46.3138Q651.4125 46.0013 651.64685 45.34505ZM648.1937 43.641926L651.6625 43.641926Q651.6 42.84505 651.27185 42.454426Q650.7562 41.84505 649.95935 41.84505Q649.225 41.84505 648.725 42.329426Q648.2406 42.8138 648.1937 43.641926ZM658.45935 46.579426Q657.8656 47.079426 657.3187 47.28255Q656.7875 47.485676 656.1625 47.485676Q655.1312 47.485676 654.58435 46.985676Q654.0375 46.485676 654.0375 45.704426Q654.0375 45.2513 654.2406 44.8763Q654.4437 44.485676 654.7875 44.266926Q655.1312 44.03255 655.5531 43.923176Q655.85 43.829426 656.4906 43.7513Q657.7562 43.610676 658.3656 43.391926Q658.3656 43.173176 658.3656 43.1263Q658.3656 42.47005 658.0687 42.204426Q657.6625 41.860676 656.8656 41.860676Q656.1312 41.860676 655.77185 42.1263Q655.4125 42.3763 655.2406 43.03255L654.20935 42.891926Q654.35 42.235676 654.6781 41.829426Q655.0062 41.423176 655.6156 41.204426Q656.225 40.985676 657.02185 40.985676Q657.8187 40.985676 658.3187 41.173176Q658.8187 41.360676 659.0531 41.641926Q659.2875 41.923176 659.3812 42.360676Q659.4281 42.6263 659.4281 43.329426L659.4281 44.735676Q659.4281 46.204426 659.4906 46.59505Q659.5687 46.985676 659.77185 47.34505L658.6625 47.34505Q658.5062 47.016926 658.45935 46.579426ZM658.3656 44.22005Q657.7875 44.454426 656.64685 44.6263Q655.9906 44.72005 655.725 44.84505Q655.45935 44.954426 655.3031 45.173176Q655.1625 45.391926 655.1625 45.673176Q655.1625 46.09505 655.475 46.3763Q655.8031 46.65755 656.4125 46.65755Q657.02185 46.65755 657.4906 46.391926Q657.975 46.1263 658.1937 45.65755Q658.3656 45.298176 658.3656 44.610676L658.3656 44.22005ZM663.6937 46.40755L663.85 47.329426Q663.39685 47.423176 663.0531 47.423176Q662.475 47.423176 662.1625 47.2513Q661.85 47.0638 661.70935 46.766926Q661.58435 46.47005 661.58435 45.516926L661.58435 41.9388L660.8187 41.9388L660.8187 41.1263L661.58435 41.1263L661.58435 39.579426L662.6312 38.954426L662.6312 41.1263L663.6937 41.1263L663.6937 41.9388L662.6312 41.9388L662.6312 45.579426Q662.6312 46.03255 662.6781 46.15755Q662.7406 46.28255 662.8656 46.360676Q662.9906 46.4388 663.225 46.4388Q663.4125 46.4388 663.6937 46.40755ZM664.0062 44.235676Q664.0062 42.5013 664.95935 41.673176Q665.7562 40.985676 666.9125 40.985676Q668.1937 40.985676 669.0062 41.829426Q669.83435 42.65755 669.83435 44.141926Q669.83435 45.34505 669.475 46.03255Q669.1156 46.72005 668.4125 47.110676Q667.725 47.485676 666.9125 47.485676Q665.6156 47.485676 664.8031 46.65755Q664.0062 45.8138 664.0062 44.235676ZM665.08435 44.235676Q665.08435 45.423176 665.6 46.016926Q666.1312 46.610676 666.9125 46.610676Q667.70935 46.610676 668.225 46.016926Q668.7406 45.423176 668.7406 44.204426Q668.7406 43.048176 668.20935 42.454426Q667.6937 41.860676 666.9125 41.860676Q666.1312 41.860676 665.6 42.454426Q665.08435 43.03255 665.08435 44.235676ZM671.3812 47.34505L671.3812 41.1263L672.33435 41.1263L672.33435 42.0638Q672.6937 41.40755 672.9906 41.204426Q673.3031 40.985676 673.6781 40.985676Q674.20935 40.985676 674.7562 41.3138L674.39685 42.298176Q674.0062 42.0638 673.6312 42.0638Q673.27185 42.0638 672.9906 42.28255Q672.725 42.485676 672.6156 42.860676Q672.4281 43.423176 672.4281 44.079426L672.4281 47.34505L671.3812 47.34505Z" fill-rule="nonzero"/><path fill="#9e9e9e" d="M647.1 62.079422L648.1625 61.938797Q648.33435 62.829422 648.77185 63.235672Q649.20935 63.626297 649.83435 63.626297Q650.58435 63.626297 651.1 63.110672Q651.6156 62.595047 651.6156 61.829422Q651.6156 61.110672 651.1312 60.641922Q650.6625 60.157547 649.9281 60.157547Q649.6312 60.157547 649.1781 60.282547L649.3031 59.345047Q649.4125 59.360672 649.475 59.360672Q650.14685 59.360672 650.6781 59.016922Q651.225 58.657547 651.225 57.923172Q651.225 57.345047 650.83435 56.970047Q650.4437 56.579422 649.8187 56.579422Q649.20935 56.579422 648.7875 56.970047Q648.3812 57.360672 648.27185 58.126297L647.20935 57.938797Q647.39685 56.891922 648.08435 56.313797Q648.77185 55.720047 649.7875 55.720047Q650.4906 55.720047 651.08435 56.032547Q651.6781 56.329422 651.9906 56.845047Q652.3031 57.360672 652.3031 57.954422Q652.3031 58.501297 652.0062 58.970047Q651.70935 59.423172 651.1312 59.688797Q651.8812 59.860672 652.3031 60.423172Q652.725 60.970047 652.725 61.813797Q652.725 62.938797 651.89685 63.720047Q651.08435 64.5013 649.83435 64.5013Q648.70935 64.5013 647.95935 63.829422Q647.20935 63.141922 647.1 62.079422ZM654.6937 64.34505L654.6937 63.141922L655.89685 63.141922L655.89685 64.34505L654.6937 64.34505ZM657.1 60.110672Q657.1 58.579422 657.4125 57.657547Q657.725 56.720047 658.33435 56.220047Q658.95935 55.720047 659.89685 55.720047Q660.58435 55.720047 661.1 56.001297Q661.6312 56.282547 661.975 56.813797Q662.3187 57.329422 662.5062 58.079422Q662.6937 58.829422 662.6937 60.110672Q662.6937 61.626297 662.3812 62.548172Q662.08435 63.470047 661.45935 63.985672Q660.85 64.48567 659.89685 64.48567Q658.6625 64.48567 657.9437 63.595047Q657.1 62.532547 657.1 60.110672ZM658.1781 60.110672Q658.1781 62.220047 658.6781 62.923172Q659.1781 63.626297 659.89685 63.626297Q660.6312 63.626297 661.1156 62.923172Q661.6156 62.220047 661.6156 60.110672Q661.6156 57.985672 661.1156 57.298172Q660.6312 56.595047 659.8812 56.595047Q659.1625 56.595047 658.725 57.204422Q658.1781 57.985672 658.1781 60.110672ZM664.3031 57.813797Q664.3031 56.891922 664.7562 56.251297Q665.225 55.610672 666.1 55.610672Q666.9125 55.610672 667.4437 56.188797Q667.975 56.766922 667.975 57.876297Q667.975 58.970047 667.4281 59.563797Q666.89685 60.141922 666.1156 60.141922Q665.33435 60.141922 664.8187 59.563797Q664.3031 58.985672 664.3031 57.813797ZM666.1312 56.329422Q665.7406 56.329422 665.475 56.673172Q665.225 57.016922 665.225 57.923172Q665.225 58.751297 665.475 59.095047Q665.7406 59.423172 666.1312 59.423172Q666.5375 59.423172 666.7875 59.079422Q667.0531 58.735672 667.0531 57.845047Q667.0531 57.001297 666.7875 56.673172Q666.52185 56.329422 666.1312 56.329422ZM666.1312 64.65755L670.83435 55.610672L671.6937 55.610672L667.0062 64.65755L666.1312 64.65755ZM669.85 62.329422Q669.85 61.407547 670.3031 60.766922Q670.77185 60.126297 671.6625 60.126297Q672.475 60.126297 673.0062 60.704422Q673.5375 61.266922 673.5375 62.391922Q673.5375 63.485672 672.9906 64.07942Q672.45935 64.65755 671.6625 64.65755Q670.89685 64.65755 670.3656 64.07942Q669.85 63.501297 669.85 62.329422ZM671.6937 60.845047Q671.2875 60.845047 671.02185 61.188797Q670.77185 61.532547 670.77185 62.438797Q670.77185 63.251297 671.0375 63.595047Q671.3031 63.938797 671.6937 63.938797Q672.08435 63.938797 672.35 63.595047Q672.6156 63.251297 672.6156 62.345047Q672.6156 61.516922 672.35 61.188797Q672.08435 60.845047 671.6937 60.845047Z" fill-rule="nonzero"/><path stroke="#757575" stroke-width="1.0" stroke-linecap="butt" d="M674.6 51.84505L489.6 51.84505L357.39124 51.84505" fill-rule="nonzero"/><path fill="#9e9e9e" d="M359.39124 51.84505C359.39124 50.74048 358.49582 49.84505 357.39124 49.84505C356.28668 49.84505 355.39124 50.74048 355.39124 51.84505C355.39124 52.94962 356.28668 53.84505 357.39124 53.84505C358.49582 53.84505 359.39124 52.94962 359.39124 51.84505" fill-rule="nonzero"/><path fill="#1a1a1a" d="M643.14685 219.73637L644.20935 219.64262Q644.2875 220.29887 644.5687 220.70512Q644.85 221.11137 645.4281 221.377Q646.02185 221.627 646.7562 221.627Q647.39685 221.627 647.89685 221.4395Q648.39685 221.23637 648.6312 220.90825Q648.8812 220.5645 648.8812 220.17387Q648.8812 219.76762 648.64685 219.47075Q648.4125 219.15825 647.8812 218.95512Q647.52185 218.8145 646.33435 218.53325Q645.1625 218.252 644.6937 218.002Q644.0687 217.67387 643.77185 217.20512Q643.475 216.72075 643.475 216.127Q643.475 215.48637 643.83435 214.92387Q644.20935 214.34575 644.9125 214.0645Q645.6312 213.76762 646.4906 213.76762Q647.4437 213.76762 648.1781 214.08012Q648.9125 214.377 649.3031 214.98637Q649.6937 215.58012 649.725 216.33012L648.6312 216.40825Q648.5375 215.59575 648.02185 215.1895Q647.52185 214.76762 646.5375 214.76762Q645.5062 214.76762 645.0375 215.14262Q644.5687 215.51762 644.5687 216.04887Q644.5687 216.51762 644.89685 216.8145Q645.225 217.11137 646.6 217.42387Q647.9906 217.73637 648.5062 217.97075Q649.2562 218.33012 649.6156 218.86137Q649.975 219.377 649.975 220.08012Q649.975 220.76762 649.58435 221.377Q649.1937 221.97075 648.45935 222.3145Q647.725 222.64262 646.8031 222.64262Q645.6312 222.64262 644.83435 222.3145Q644.0531 221.97075 643.6 221.28325Q643.1625 220.59575 643.14685 219.73637ZM655.64685 220.502L656.7406 220.627Q656.4906 221.58012 655.7875 222.11137Q655.08435 222.64262 654.0062 222.64262Q652.64685 222.64262 651.83435 221.79887Q651.0375 220.95512 651.0375 219.4395Q651.0375 217.877 651.85 217.01762Q652.6625 216.14262 653.9437 216.14262Q655.1937 216.14262 655.975 216.98637Q656.77185 217.83012 656.77185 219.377Q656.77185 219.47075 656.77185 219.65825L652.1312 219.65825Q652.1937 220.6895 652.70935 221.23637Q653.225 221.76762 654.0062 221.76762Q654.58435 221.76762 654.9906 221.47075Q655.4125 221.15825 655.64685 220.502ZM652.1937 218.79887L655.6625 218.79887Q655.6 218.002 655.27185 217.61137Q654.7562 217.002 653.95935 217.002Q653.225 217.002 652.725 217.48637Q652.2406 217.97075 652.1937 218.79887ZM658.3656 222.502L658.3656 213.90825L659.4281 213.90825L659.4281 222.502L658.3656 222.502ZM661.3656 222.502L661.3656 213.90825L662.4281 213.90825L662.4281 222.502L661.3656 222.502ZM668.64685 220.502L669.7406 220.627Q669.4906 221.58012 668.7875 222.11137Q668.08435 222.64262 667.0062 222.64262Q665.64685 222.64262 664.83435 221.79887Q664.0375 220.95512 664.0375 219.4395Q664.0375 217.877 664.85 217.01762Q665.6625 216.14262 666.9437 216.14262Q668.1937 216.14262 668.975 216.98637Q669.77185 217.83012 669.77185 219.377Q669.77185 219.47075 669.77185 219.65825L665.1312 219.65825Q665.1937 220.6895 665.70935 221.23637Q666.225 221.76762 667.0062 221.76762Q667.58435 221.76762 667.9906 221.47075Q668.4125 221.15825 668.64685 220.502ZM665.1937 218.79887L668.6625 218.79887Q668.6 218.002 668.27185 217.61137Q667.7562 217.002 666.95935 217.002Q666.225 217.002 665.725 217.48637Q665.2406 217.97075 665.1937 218.79887ZM671.3812 222.502L671.3812 216.28325L672.33435 216.28325L672.33435 217.22075Q672.6937 216.5645 672.9906 216.36137Q673.3031 216.14262 673.6781 216.14262Q674.20935 216.14262 674.7562 216.47075L674.39685 217.45512Q674.0062 217.22075 673.6312 217.22075Q673.27185 217.22075 672.9906 217.4395Q672.725 217.64262 672.6156 218.01762Q672.4281 218.58012 672.4281 219.23637L672.4281 222.502L671.3812 222.502Z" fill-rule="nonzero"/><path fill="#9e9e9e" d="M641.725 234.84575Q641.0687 234.59575 640.7406 234.15825Q640.4281 233.70512 640.4281 233.09575Q640.4281 232.15825 641.1 231.51762Q641.7875 230.877 642.89685 230.877Q644.02185 230.877 644.70935 231.53325Q645.39685 232.1895 645.39685 233.127Q645.39685 233.72075 645.08435 234.15825Q644.77185 234.59575 644.1312 234.84575Q644.9281 235.09575 645.33435 235.67387Q645.7406 236.252 645.7406 237.04887Q645.7406 238.14262 644.95935 238.89262Q644.1937 239.64262 642.9125 239.64262Q641.64685 239.64262 640.8656 238.89262Q640.08435 238.14262 640.08435 237.01762Q640.08435 236.17387 640.5062 235.61137Q640.9437 235.04887 641.725 234.84575ZM641.5062 233.04887Q641.5062 233.65825 641.89685 234.04887Q642.3031 234.4395 642.9281 234.4395Q643.5375 234.4395 643.9281 234.0645Q644.3187 233.67387 644.3187 233.11137Q644.3187 232.53325 643.9125 232.14262Q643.5062 231.73637 642.9125 231.73637Q642.3031 231.73637 641.89685 232.127Q641.5062 232.51762 641.5062 233.04887ZM641.1781 237.01762Q641.1781 237.47075 641.3812 237.89262Q641.6 238.3145 642.02185 238.54887Q642.4437 238.78325 642.9281 238.78325Q643.6781 238.78325 644.1625 238.29887Q644.6625 237.8145 644.6625 237.0645Q644.6625 236.29887 644.1625 235.79887Q643.6625 235.29887 642.89685 235.29887Q642.14685 235.29887 641.6625 235.79887Q641.1781 236.28325 641.1781 237.01762ZM647.1 235.26762Q647.1 233.73637 647.4125 232.8145Q647.725 231.877 648.33435 231.377Q648.95935 230.877 649.89685 230.877Q650.58435 230.877 651.1 231.15825Q651.6312 231.4395 651.975 231.97075Q652.3187 232.48637 652.5062 233.23637Q652.6937 233.98637 652.6937 235.26762Q652.6937 236.78325 652.3812 237.70512Q652.08435 238.627 651.45935 239.14262Q650.85 239.64262 649.89685 239.64262Q648.6625 239.64262 647.9437 238.752Q647.1 237.6895 647.1 235.26762ZM648.1781 235.26762Q648.1781 237.377 648.6781 238.08012Q649.1781 238.78325 649.89685 238.78325Q650.6312 238.78325 651.1156 238.08012Q651.6156 237.377 651.6156 235.26762Q651.6156 233.14262 651.1156 232.45512Q650.6312 231.752 649.8812 231.752Q649.1625 231.752 648.725 232.36137Q648.1781 233.14262 648.1781 235.26762ZM654.6937 239.502L654.6937 238.29887L655.89685 238.29887L655.89685 239.502L654.6937 239.502ZM657.1 235.26762Q657.1 233.73637 657.4125 232.8145Q657.725 231.877 658.33435 231.377Q658.95935 230.877 659.89685 230.877Q660.58435 230.877 661.1 231.15825Q661.6312 231.4395 661.975 231.97075Q662.3187 232.48637 662.5062 233.23637Q662.6937 233.98637 662.6937 235.26762Q662.6937 236.78325 662.3812 237.70512Q662.08435 238.627 661.45935 239.14262Q660.85 239.64262 659.89685 239.64262Q658.6625 239.64262 657.9437 238.752Q657.1 237.6895 657.1 235.26762ZM658.1781 235.26762Q658.1781 237.377 658.6781 238.08012Q659.1781 238.78325 659.89685 238.78325Q660.6312 238.78325 661.1156 238.08012Q661.6156 237.377 661.6156 235.26762Q661.6156 233.14262 661.1156 232.45512Q660.6312 231.752 659.8812 231.752Q659.1625 231.752 658.725 232.36137Q658.1781 233.14262 658.1781 235.26762ZM664.3031 232.97075Q664.3031 232.04887 664.7562 231.40825Q665.225 230.76762 666.1 230.76762Q666.9125 230.76762 667.4437 231.34575Q667.975 231.92387 667.975 233.03325Q667.975 234.127 667.4281 234.72075Q666.89685 235.29887 666.1156 235.29887Q665.33435 235.29887 664.8187 234.72075Q664.3031 234.14262 664.3031 232.97075ZM666.1312 231.48637Q665.7406 231.48637 665.475 231.83012Q665.225 232.17387 665.225 233.08012Q665.225 233.90825 665.475 234.252Q665.7406 234.58012 666.1312 234.58012Q666.5375 234.58012 666.7875 234.23637Q667.0531 233.89262 667.0531 233.002Q667.0531 232.15825 666.7875 231.83012Q666.52185 231.48637 666.1312 231.48637ZM666.1312 239.8145L670.83435 230.76762L671.6937 230.76762L667.0062 239.8145L666.1312 239.8145ZM669.85 237.48637Q669.85 236.5645 670.3031 235.92387Q670.77185 235.28325 671.6625 235.28325Q672.475 235.28325 673.0062 235.86137Q673.5375 236.42387 673.5375 237.54887Q673.5375 238.64262 672.9906 239.23637Q672.45935 239.8145 671.6625 239.8145Q670.89685 239.8145 670.3656 239.23637Q669.85 238.65825 669.85 237.48637ZM671.6937 236.002Q671.2875 236.002 671.02185 236.34575Q670.77185 236.6895 670.77185 237.59575Q670.77185 238.40825 671.0375 238.752Q671.3031 239.09575 671.6937 239.09575Q672.08435 239.09575 672.35 238.752Q672.6156 238.40825 672.6156 237.502Q672.6156 236.67387 672.35 236.34575Q672.08435 236.002 671.6937 236.002Z" fill-rule="nonzero"/><path stroke="#757575" stroke-width="1.0" stroke-linecap="butt" d="M674.6 227.002L489.6 227.002L401.06235 227.002" fill-rule="nonzero"/><path fill="#9e9e9e" d="M403.06235 227.002C403.06235 225.89743 402.16693 225.002 401.06235 225.002C399.9578 225.002 399.06235 225.89743 399.06235 227.002C399.06235 228.10657 399.9578 229.002 401.06235 229.002C402.16693 229.002 403.06235 228.10657 403.06235 227.002" fill-rule="nonzero"/></svg>